<svg version="1.2" xmlns="http://www.w3.org/2000/svg" viewBox="0 0 4252 4252" width="100%" height="auto">
  <title>Muscle_Map</title>
  <style>
	.s2 {
      fill: #e6e7e8;
      cursor: pointer;
      transition: fill 0.3s;
    }
	.s2:hover {
      fill: #007bff;
    }
    .s2.active {
      fill: #0056b3;
    }
    .s0 { fill: #808284 } 
	.s1 { fill: #bbbdbf } 
  </style>
  <g id="muscles">
    <path id="&lt;Compound Path&gt;" fill-rule="evenodd" class="s0" d="m3266.9 742.6c-2.5 31.1-12.7 54.6-22.4 78.6 4.9 19.6 4.7 44.4 11.2 62.5 49.8 27.6 99.7 55.2 144.3 88.1 46.2 3.9 88.2 7.8 121.7 30.4 18.3 12.3 32.6 28 48.1 44.9 32.9 35.9 64 66.2 68.9 129.8 1.8 23.4 0.4 50.4-1.6 75.3-1.8 23.5-2.7 47.4-11.2 65.7 15.7 30 33.3 62.1 41.7 99.4 8.6 38.4 14.3 84.1 11.2 129.8-3.1 43.8-7 87.8 4.8 129.8 10.6 37.8 21.5 74.3 24 115.3 4.1 65-16.3 125.7-33.6 182.7-8.4 27.7-17.2 54.5-27.3 80.2-10.3 26.2-25.3 50.8-32 75.3-3.7 13.4-3.1 30.3-6.4 41.6-4 13.4-17 24.9-19.3 38.5-2.8 17.5 1.8 45.9 3.3 65.7 1.8 25.1 5.6 54.8 0 73.7-4.8 15.8-19.6 27.3-28.9 40.1-9.6 13.2-15.5 33.4-32 38.4-33.5 10.1-56.7-18-77-30.4-16.3 129.4-35.3 256.3-86.5 350.9 4 53.1-2.2 108.5-9.6 157.1-2.4 15.8-3.3 32.4-11.2 44.8 49.1 112.8 57.6 269.9 24 395.8-15.6 58.7-40.9 114.3-57.7 173.1-14.4 50.6-26.7 106.7-28.8 173.1-0.3 9.4-2.8 20-1.6 27.2 1.7 11.1 13.4 22.1 22.4 33.7 8.5 10.9 17.3 22.6 24 30.4 14.2 16.4 50.6 38.9 49.7 59.3-1.6 38.8-81.8 16.4-118.6 19.2-25 1.9-64.9 14.2-94.5 4.8-38.9-12.2-23.9-64.1-16-105.7 12.9-68.6 18.1-147 20.8-224.4 4.1-118.1-23-195.8-40.1-286.8-16.8 88.6-44.1 170.1-40 286.8 2.6 76.5 7.5 153.7 20.8 224.4 7.5 39.6 24.4 93.5-16 105.7-29.4 9-65.1-2.3-93-4.8-33.5-2.9-116.4 19.3-120.1-17.6-2.1-20 38.7-48.2 49.6-60.9 7.6-8.7 15.9-19.9 24.1-30.4 8.5-11 20.5-22.2 22.4-32.1 2.1-11.1-0.8-39.8-1.6-56.1-0.9-18.7-3.8-36.6-6.4-51.2-12.3-69.6-29.6-121-51.3-179.5-10.6-28.6-19.2-58-27.2-88.2-17.2-64.1-24.1-132.3-20.9-206.7 3-66.8 20.2-131.7 43.3-187.5-10.9-28.1-14-60.6-17.6-96.1-2.7-26.1-4.7-52.5-4.8-80.1-0.1-8.4 2.6-18.6 1.6-25.7-1.3-8.2-13-28-17.7-38.4-38.4-87.5-53.9-200.3-68.9-312.5-6.1 0.3-11.6 6.8-17.6 11.2-11.7 8.6-36.5 24.5-59.3 17.6-15-4.5-20.2-21.8-30.4-36.8-10.9-15.9-27.4-24.9-32.1-43.3-4.4-17.2-1.3-46.4 0-68.9 1.3-22 7.8-46.1 4.8-67.3-1.9-13.5-13-24.1-17.6-36.9-4.1-11.5-4.3-28.9-8-43.2-6.3-24.6-20.1-50.4-30.4-76.9-10-25.5-20.6-51.1-28.9-78.6-17.1-56.4-36.7-116.6-33.7-181 2-41.1 11.8-80.3 22.5-118.6 11.7-41.9 11.3-85.1 8-129.8-6.6-89.2 14.2-165.8 49.7-227.6-15.4-74.3-18.8-170.4 11.2-219.5 11.6-19.1 30.6-35.5 46.5-52.9 19-20.8 36-42.5 60.9-54.5 23.6-11.4 50.2-13.3 78.5-17.6 9.1-1.4 20.3-0.9 28.8-3.2 11.4-3.1 22.6-15.4 35.3-24 33.4-22.9 77.5-44.2 110.5-64.1 6.6-17.5 6-42.2 11.3-60.9-8.8-25-19.6-47.8-22.5-78.6-6.6 0.7-16.2 2.2-24-3.2-16.8-11.5-53.9-116.7-8-133-14.8-69.8 6.9-133.6 40-173 30.5-36.3 79.5-59.6 145.9-54.5 35.4 2.7 71.5 17.6 96.1 38.4 45.8 38.8 66.3 108.7 56.1 187.5-1.2 5.5 7.2 5.9 11.2 11.2 16.2 21.5 8.9 61.3-1.6 88.2-9.7 25-17.9 44.8-43.3 36.8zm-157 1971.1c-3.9 28.6-8.8 58.7-8 86.5 0.9 30.2 11.1 60.7 12.8 91.3 2.3 42.2-6.2 80.1-14.4 120.2 9.9 37.1 22.2 71.8 28.8 112.2 5.3-1.4 4-9.3 4.8-12.8 8.2-34.7 18.6-67.5 27.3-99.4-8.2-40.6-17.1-79.2-14.4-121.8 1.9-30.9 12.2-60.8 12.8-91.3 0.5-27.3-4.4-56.4-8-84.9-11.1-87.1-15.9-174.4-20.9-259.6-1.2 90.4-9.6 178.2-20.8 259.6zm288.5-1084.9c9.9 55.3 7.9 136-3.3 182.7 19.6 39.4 38.1 75.7 41.7 126.6 1.6 21.8-4.3 46.8-1.6 65.7 1.6 11.4 11.6 27.1 17.6 41.6 6 14.3 12.9 29.5 16.1 44.9 6.9 34.6 1.6 65-4.9 97.8 10.3-9.3 25-22.8 25.7-35.3 2.5-45.4 11.5-93.7 11.2-141-0.3-57.2-20.4-100.2-27.2-149-12.9-92-0.7-172 28.8-237.2-18.7-39-26.5-88.9-36.8-136.2-15.6 53.4-43.4 94.4-67.3 139.4zm-639.4-3.2c30 67 42 148.4 28.8 238.8-5.7 39.4-21.1 77.4-25.6 118.5-3.9 35.4 0.7 66.5 4.8 99.4 4.3 34.8 1.1 72.7 16 92.9 3.2 4.4 10.1 11.1 14.4 11.3-5.4-22.8-8.2-41.7-8-64.1 0.3-32.4 9.9-54.5 19.2-77 6.4-15.2 16.2-31 17.7-43.2 2.7-22.8-3.2-45-1.6-65.7 3.9-50.6 23.4-86.5 41.6-126.6-11.5-45.8-12.9-126.5-3.2-181.1-24.9-44.5-50.6-88.3-68.9-139.4-7 50.1-17.6 96.6-35.2 136.2z"/>
    <path id="&lt;Compound Path&gt;" fill-rule="evenodd" class="s1" d="m3268.5 654.5c9.6-24.6 17.7-50.3 19.3-78.5 2.6-48.1-11.9-88.8-30.5-118.6-18.1-29-55.7-51.8-96.1-59.3-70.2-13-133.6 21.8-157.1 59.3-16.1 25.8-28.1 58.2-30.4 92.9-3.8 57.1 15.8 104 35.2 137.8 5.7 10 15.3 19.8 14.5 32.1-9.8-1.7-14.4-12.7-19.3-19.2-16.9-22.5-30.8-46.4-40-75.3-15.2 23.4-5.4 53.5 3.2 75.3 4.4 11.2 9.3 29.9 20.8 25.6 9.1-2.9-5.1-20.7 6.4-22.4 13.3 23.6 15.5 58.2 27.3 83.3 1.4-9.8-1.9-24.3 9.6-24 4.5 8.6 2.5 20.8 1.6 32-0.9 11.2-1.9 23.7-3.2 35.3-1.9 17.6-3 52.5-11.2 64.1-6.2 8.5-33.1 19.2-44.9 25.6-17.4 9.5-31.9 18-44.9 25.6-33.7 20.1-61.8 39-89.7 52.9-8.2-0.1 0-12.3-6.4-8-28.8 4-54.3 7.6-76.9 19.2-20 10.3-36.4 28.7-51.3 44.9-16.1 17.5-31.4 33.3-43.3 52.9-27.4 45-26.4 120.3-16 187.5 1.7 2.4 5.8-12.4 12.8-4.8-26.2 59.6-53.1 122.3-57.7 195.5-3 48.7 4.2 93.4 1.6 142.6-1.7 33-13.7 60.4-20.8 91.3-7.4 32-13.2 67.7-11.2 102.6 1.7 30.3 9.7 62.9 17.6 94.5 7.4 29.8 15.4 60.9 25.6 88.2 15.9 42.4 36.3 79.8 48.1 120.2 4.6 15.5 3.5 33.3 9.6 48 4.4 10.6 13.4 18.2 16.1 28.9 3.6 14.7 1.5 36.4 0 56.1-1.4 16.9-2.5 35.4-3.2 51.2-0.5 10-3.1 19.4-1.7 28.9 3.2 20.5 20.2 27.7 32.1 46.5 6.3 9.9 11.4 24.3 19.2 27.2 26.5 9.9 57.8-22.3 70.5-36.9-3.2-51.8-4-105.9-4.8-160.2-15.2-18.4-32.6-29.4-40-52.9-3.7-11.7-2.1-26.7-3.2-41.6-3.2-40.8-14.2-80.9-11.3-121.8 2.8-37.6 13.6-74.4 20.9-110.6 17.5-87.5 14.1-163.3-12.8-237.2-3.5-2.8-5.2 16.6-12.9 9.6 0.1-16.4 6.7-33.1 11.3-49.6 9.5-34.4 17.6-67.3 24-105.8 2.8-16.7 10.4-41.1 9.6-56.1-0.4-8.1-5.4-19.8-8-30.4-7.2-29.8-10.1-71.4-19.2-96.2-3.9-10.6-11.5-18.7-14.5-28.8-2.7-9.5-3.7-21.4-4.8-32.1-1.1-11.8-4.5-27.4 3.2-30.4 7.3 5.4 6.6 15.4 8 22.4 1.8 8.2 3.9 15.8 6.5 24.1 4.7 15.6 12.7 29.1 17.6 43.2 11.3 33.1 11.2 68.2 19.2 101 7.8 31.7 16.7 63.5 28.9 92.9 21 51.2 52.9 90.9 68.9 142.6 1.9 6.5 6.4 15.7 1.6 22.5-11.7-1.2-9.3-16.3-16.1-22.5-4.4 47.4-6.4 108.1 8.1 145.9-30 53.1-50 131.3-41.7 213.1 1.3 12.4 5.6 25.4 0 36.9-10.3-0.4-5.7-15.8-11.2-20.9-8.8 26.3-23.5 49.4-25.7 80.1-1.9 27 6.5 54.5 9.6 83.4 4.9 44.1-0.4 85.3 1.7 129.8 3.8 84.2 17.7 166.6 33.6 241.9 16.4 77.7 38.8 147.9 68.9 206.8 1.2 6.9-14.5 2.2-9.6 8-2.6 48.5 7.1 98.6 12.8 144.2 5 3.4 5.8-18.2 14.4-11.2 1.6 9.6-3.5 19.2-6.4 27.2-23 63.8-41.4 142.5-44.8 221.2-4.1 92.5 17.8 176 46.4 254.8 13.5 37 27 75.3 36.9 113.7 10.6 41.4 21.1 84.8 24 128.2 1 14.8 3.7 52.1 1.6 64.1-1.9 11.1-14.3 26.6-22.4 36.9-16.4 20.7-32 39.9-49.7 56.1-8.7 7.9-22.8 13.7-22.4 27.2 30.9 15.6 74.5-6.5 108.9 3.2-15.8-15.2-8.1-44.9-1.6-62.5 3.5-9.2 6.7-19.9 12.9-22.4 4.5 19.4-10.1 43.4-4.8 64.1 3.4 13.5 17.1 16.6 25.6 25.6 20.9-2.9 40.8 4.7 54.5-3.2 21.4-12.2 5.4-57 0-84.9-4.3-22.3-7.6-45.9-9.6-65.7-7.6-73.7-14.8-148.7-11.3-227.6 5.1-110.6 52.8-203.9 44.9-312.4-2.5-35.3-15.7-69.9-24-104.2-6.6-27.1-11.3-54-16-80.1-1.4-7.7-6.6-19.8 1.6-25.7 8.5 3.8 5.4 19.1 11.2 25.7 2.4-29.2 8.1-55.3 6.4-83.4-2.3-36.9-15.3-72.2-12.8-112.1 2.8-45.7 12.1-91.7 17.6-139.4 13.8-120.4 15.7-248.3 12.8-379.8-6.5 2.1-13.1 8.9-20.8 12.8-25.4 12.8-55.4 15.2-86.6 12.8-68.2-5.3-131.5-48-133-107.4 10.7 4.8 14.2 17.9 20.9 27.3 6.3 8.8 13.1 19.7 20.8 27.2 41.2 40.3 141.6 50.5 185.9 17.7 12.3-9.2 17-23 30.4-33.7 21.8 71.7 159.8 65.1 210 16 11.7-11.4 22.1-29.1 30.4-41.6 3.1-4.6 3.8-14.9 12.8-12.9-8.8 66.1-68.4 102.6-136.2 107.4-41.5 3-69-4.8-91.3-17.6-5.3-3.1-12.1-9.3-12.8-4.8-2.7 129-1.2 260.4 12.8 376.6 5.8 48.3 13.5 95 16 141 0.4 7.9 0.6 16.1 0 24-4.2 57.2-23.9 113-4.8 169.9 3.1-9.2 1.3-23.3 11.2-25.7 5.1 7.5 1.5 17.6 0 25.7-5.1 28.1-9.6 53.7-16 80.1-8.4 34.8-21.6 69.6-24 105.8-7.3 108.4 39.9 201.6 44.8 312.4 1.3 28.1 1.4 58 0 88.2-3.1 68.5-8.8 141.5-20.8 203.5-4.4 22.5-13 47.5-11.2 64.1 3.2 30.2 34.5 23 67.3 24 7.1-10.6 20.6-12 24-25.6 5.5-21.8-11.5-48.5-3.2-64.1 7.6 14.6 22.6 41.4 19.2 64.1-1.3 8.8-7.7 13.6-8 20.8 23.2-7.9 53.4 3.6 78.6 3.2 9.6-0.1 22.3-0.9 28.8-8-2.2-12-13.6-19.1-22.4-27.2-9.3-8.6-17.1-17.1-25.7-27.3-13.8-16.4-39.3-40.2-44.9-60.9-2.4-9.1-0.5-17.2 0-30.4 0.7-13.8-0.6-29.1 0-38.5 3.2-42.7 13.6-85.7 24.1-126.6 9.9-38.5 23.3-76.5 36.8-113.7 28.8-79.1 50.7-164.1 46.5-256.4-3.6-79.8-22.8-160.1-44.9-221.2-2.8-7.9-10.5-18-4.8-27.2 8.2-1.8 8.9 19.2 12.9 11.2 6.3-45 15.3-95.7 12.8-144.2 3.2-2.8-12.5-0.3-9.6-8 31.6-58 52.4-129.3 68.9-206.8 16.1-75.5 29.9-157.5 33.6-241.9 2.1-47.1-3.4-86.4 1.6-129.8 3.4-29.2 11.9-56.4 9.6-83.4-2.5-30.4-16.4-53.9-27.2-78.5-1.7 7.8-1.9 24.3-11.2 19.2 1.7-37.8 6.1-75.4 3.2-113.7-4-52.2-28.4-97.7-43.3-136.2 7.2-15.4 10-38.8 11.2-62.5 1.4-27.7-0.2-59.3-4.8-81.8-4.2 8.6-3.4 22.3-16 22.5 1.9-32.4 17.9-58.6 32.1-85 28.1-52.2 53.3-109.1 68.9-173 8.1-33.4 8.1-71.3 19.2-102.6 4.7-13.3 14.6-26.2 19.2-41.6 2.5-8.3 3-17.1 4.8-25.7 1.3-6 0.6-18.2 9.6-20.8 6.5 9.1 1 20.5 0 30.4-1 11.3 0.1 22.9-3.2 33.7-2.8 9.5-10.8 17.6-14.4 27.2-6.2 16.9-8.8 42.3-12.8 64.1-2 10.9-3.8 21.4-6.4 32.1-2.5 10.2-7.6 22.3-8 30.4-0.4 7.7 3.4 18.1 4.8 27.3 7.5 49.3 16.9 93.4 28.8 136.2 5 17.7 14.3 35.3 9.6 49.6-7.6 2.2-8.5-17.2-11.2-9.6-28.1 75.1-29.8 150.7-12.8 235.6 7.4 36.9 18.3 74.1 20.8 112.2 2.8 41.2-8.5 81.8-11.2 123.4-0.7 10.9 1.7 20.4 0 30.4-2.8 16.9-12.9 25.6-22.4 36.9-7.5 8.9-18.8 18-20.9 25.6-3.3 12.2 0.6 27.4 0 40.1-1.8 40.5-2.4 84.3-4.8 120.2 15.4 14.2 38.1 38.2 64.1 36.8 15.7-0.9 17.6-17.6 25.7-30.4 9.1-14.5 24.1-22.4 28.8-33.7 5.1-12 2.3-27.4 1.6-41.7-0.7-15.7-1.8-32.8-3.2-49.6-1.4-18.2-3.7-37.9-1.6-52.9 1.8-12.7 13.2-21.4 17.6-32.1 5.9-14 5.3-31.2 9.7-46.4 4-14 8.9-28.3 14.4-41.7 21.4-52.8 44.1-107.5 59.3-168.3 8-32 16-65 17.6-96.1 1.7-34.3-3.9-69.2-11.2-101-7.3-31.5-19.4-59.2-20.8-92.9-1.4-30 2.1-64 3.2-88.1 3.6-83.9-17.7-150.3-41.7-205.2-6.4-14.5-15.5-28.6-16-44.8 9-4.9 9.2 13 11.2 4.8 4.4-36.5 9-76.8 6.4-112.2-2.9-39.7-17.4-72.9-41.7-100.9-10-11.6-23-24.2-35.2-36.9-12.5-12.9-25.5-26.8-38.5-33.7-22.6-11.9-54.1-15.7-80.1-19.2-2.7-3.3 2.4 9.8-6.4 8-39-23-88.6-54.2-133-78.5-13.9-7.5-38.4-17.5-44.9-27.2-9.3-14-8.8-41.6-11.2-64.1-1.2-11.3-2.3-22.4-3.2-33.7-0.8-10.2-4.3-25.3 3.2-32 10.6 0.5 4.8 17.5 9.6 24 5.7-20.9 12.1-45.2 17.6-64.1 2.1-7 2.2-16.5 9.6-19.2 9.4 3.6-5.6 21.8 6.5 22.4 11.1 2.8 14.7-15.6 19.2-27.2 8.8-23.1 19.6-53.7 1.6-73.7-7 29.5-23.2 56.5-38.5 76.9-4.7 6.3-11.5 18.7-20.8 16 9.5-21 23-40.8 32-64.1zm-59.2 2187.4c1.8-0.3 2.8 0.3 3.2 1.6-0.6 24.7 14.3 48.8 6.4 70.5-10.8-19.1-15.2-43.8-9.6-72.1zm92.9-33.7c21.2 23.4 20.3 62.3 19.2 101-8.3-4.5-6-19.6-12.8-25.7 0.1-27.3-0.4-54-6.4-75.3zm-253.2 33.7c1.9-0.3 2.9 0.3 3.2 1.6 6.4 27.9-0.5 49.4-8 70.5-12.2-19.7 7.1-47.6 4.8-72.1zm-91.3-33.7c4.3 6.4-2.3 10.6-3.2 17.6-2.3 16.7 1.3 39.2-1.6 56.1-0.9 5.1-4.4 9.4-6.4 14.4-1.8 4.5 0 13.5-6.5 12.9-1.5-38.8-0.8-75.4 17.7-101zm176.2-1400.5c1.4-0.3 1.6 0.6 1.6 1.6-0.7 84.8 5.6 177.2 1.7 266-1.3 28 1.1 56.6-6.5 81.7-10.2-9.4-7.7-25.1-8-38.5-0.8-42.2-2.1-89.3 0-134.6 2.9-62.8 0.8-127.3 11.2-176.2zm-6.4-636.2q1.6 0 3.2 0c6.1 3.8 3.1 13.4 3.2 19.2 0.8 34 8 75.9-1.6 104.2-0.3-0.2-1.3 0.2-1.6 0-18.8-17.2 3.3-83.6-3.2-118.6q0-2.4 0-4.8zm67.3-36.9c-5.2 6.3-14.6 7.8-20.8 8-13.3 0.6-27.7-8.9-40.1-9.6-20.6-1.2-46.4 19.8-67.3 3.2 2.7-4.3 9-2.2 12.9-3.2 4.9-1.2 9-3.2 14.4-4.8 14.4-4.2 28.7-12.3 46.5-9.6 8.7 1.3 18.6 7.1 27.2 9.6 9.6 2.8 17.8 5.5 27.2 6.4zm-557.3 899.2c-2.6 18.2-13.4 33-8.9 53-0.4 14.5 14.5 30.2 16.5 41.8-3.9-6.5-31.4-27.1-31.2-37.1 3.9-19.8 10.8-50.8 23.6-57.7zm61.2 14.7c-6.4 10.1-3.3 25.9-6.1 42.2-1.5 9.3-15.1 6-15.1 17.3 0 2.2-0.4 11.9 0.6 11.2 13.2-9.8 23.5-13.5 23.5-33 0-6 1.5-16.3 0-21.8-1-3.6-3.2-6.5-1.6-9.6 3.8-7.5-2-6.5-1.3-6.3zm859.5 0c6.4 10.1 3.3 25.9 6 42.2 1.6 9.3 15.2 6 15.2 17.3 0 2.2 0.3 11.9-0.6 11.2-13.2-9.8-23.6-13.5-23.6-33 0-6-1.5-16.3 0-21.8 1-3.6 3.2-6.5 1.7-9.6-3.8-7.5 2-6.5 1.3-6.3zm61.2-14.7c2.6 18.2 13.3 33 8.8 53 0.4 14.5-14.5 30.2-16.4 41.8 3.9-6.5 31.3-27.1 31.1-37.1-3.9-19.8-10.7-50.8-23.5-57.7z"/>
    <path id="&lt;Compound Path&gt;" fill-rule="evenodd" class="s0" d="m1243.9 593.6c34.5 0.3 38.2 41 28.8 78.5-7.7 30.8-21.3 57.1-46.5 65.7-8 37.4-8.3 82.5-12.8 123.4 9.5 13.3 25.3 20.1 38.5 28.9 39.3 26.2 79.1 55.8 118.6 83.3 45 4.3 95.7 9.2 131.3 25.6 32 14.8 53.8 39.4 72.2 68.9 17.1 27.6 36.8 62.6 40 99.4 3.7 42.3-1.3 93.9-9.6 131.4-2.6 11.8-9.4 25.8-9.6 36.8-0.1 8.6 5.1 23.5 8 35.3 13 53.5 20.9 117.3 16 189.1-1.7 25.5-8.3 52.9-6.4 76.9 1.7 20.9 13.8 42.4 20.9 60.9 8.2 21.6 13.5 41.4 16 65.7 4.8 48-1.7 98.5-11.2 145.8-13.5 66.9-25.7 137.6-32.1 213.2-2.2 25.5-5.6 52.9-4.8 76.9 0.9 23.9 8.7 49.5 12.8 73.7 5.4 31.9 16.6 66.3 6.4 94.5-3.3 9.3-7.7 13.3-16 22.5-5.5 6.1-8.7 15.4-14.4 22.4-5.4 6.6-13.8 9.8-20.8 17.6-9.1 10.2-12.5 17.8-17.7 19.3-14.7 4-34.9-2.8-48-6.4-11.9-3.4-29.5-8.5-36.9-16.1-8.6-8.8-7.6-21.8-12.8-32-6.2-12.1-16.1-13-22.5-20.9-16.4 125.5-34.4 247.8-78.5 349.4-8 18.4-18.5 36.7-20.8 59.3-2.5 24.5 2.1 49.6-1.6 75.3-1.6 11-6.7 22.6-6.4 33.6 0.4 19.8 10.8 41.5 16 62.5 14.6 59 28.5 128 28.8 201.9 0.5 97.9-26.7 186.2-51.2 269.3-17.1 57.7-35 125.4-46.5 193.9-4.4 26.4-12.6 55.9-8 80.1 3.9 20.3 20.6 41.5 35.2 60.9 11.2 14.7 19.8 25 35.3 36.8 5.3 4.1 11.1 11.5 16 12.9 25.4 7.1 56.8 14.3 56.1 38.4-0.4 14-10.6 20.2-35.2 20.8-18.2 0.5-36.4 0-54.5 0-37.3 0-78.2 5.6-109 1.6-8.6-1.1-15.7-6.9-27.2-8-26.4-2.4-51.7 6.6-60.9-8-11.8-18.4 15-70.8 14.4-92.9-0.4-12.9-6.7-25.8-6.4-38.5 0.5-19.4 10-39.8 12.8-60.9 13.7-102.2 9.2-243.8-9.6-341.3-7.7-39.8-23.1-76.9-25.7-120.2-5.4 9.3-4.4 20-6.4 30.5-5.6 29.4-15.2 58.9-20.8 89.7-17.9 98.1-21.6 236.7-6.4 341.3 1.6 11 3.5 19.7 6.4 30.5 2.4 8.9 6 20 6.4 28.8 0.6 13.5-6.3 26.1-6.4 38.5-0.2 32.9 24 60.3 16 94.5-7.4 13.9-38.2 6.7-59.3 8-12.7 0.8-20.1 8-35.2 8-32 0-62.7 0-104.2 0-34.6 0-83.4 5.2-88.1-14.4-5.5-22.6 18.1-34.8 33.6-40 5.5-1.9 12.6-2.1 19.3-4.8 19.1-8 40.5-31.2 52.8-48.1 11.4-15.5 32-42.6 35.3-64.1 3.4-22.4-3.5-50-8-75.3-11.8-65.8-30.8-138.4-48.1-197.1-24.5-83.1-54.5-168.6-54.5-272.5 0-84.6 17.3-159.8 35.3-230.7 2.5-9.8 7.6-20.2 8-28.9 0.8-18.1-8.2-37.9-9.6-57.6-1.6-22.2 1.9-50.1-3.2-68.9-8-29.4-25.4-56.7-35.3-88.2-28-88.9-53.2-196.3-62.5-302.8-5.4 0.7-14.3 7.4-19.2 12.8-7.7 8.4-8.6 31.3-17.6 40-9 8.6-25.5 10.9-38.5 14.5-17.9 4.8-43 15.1-56.1 0-2-2.3-2.7-8.9-6.4-12.9-5.8-6.3-14.6-10.1-20.8-17.6-13-15.5-26.4-27.6-32.1-43.3-8.3-23.3-0.8-58.4 4.8-91.3 4.2-24.2 11.2-49 12.9-68.9 1.9-24.1-2.5-51.5-4.9-78.5-6.3-74.6-18.1-147.3-32-216.4-9.4-46.9-19.9-93.3-14.4-147.4 2.4-24.2 8.2-45.7 16-67.3 7.2-20.1 19.3-41 20.8-60.9 1.9-23.4-6.5-49.4-8-75.3-3.9-68.4 1.5-135 14.4-190.7 2.7-11.5 8-24 8.1-33.6 0-11.1-5.4-24-8.1-35.3-7.6-32.2-13.1-75.4-12.8-117 0.4-44.3 18.1-80.1 36.9-112.2 17.6-30 42.5-60.1 73.7-75.3 26.9-13.1 61.8-18.2 94.5-22.4 10.8-1.4 14.6-0.1 25.8-3.2 11.5-3.2 34.8-15.6 46.3-24 36.3-26.3 76.2-49.2 115.3-75.4-6.5-43.7-4.9-95.5-14.4-136.2-4.5-6-19.1-8.9-25.7-17.6-5.5-7.2-17.4-34.5-20.8-46.5-9.9-34.8-8.1-82.4 28.8-80.1-2.6-21.5-7.7-40.4-8-59.3-0.6-49.6 31.1-93.4 64.1-117 23.4-16.7 58.5-32.6 91.4-35.2 71.5-5.7 144.4 50.7 163.6 115.4 9.2 31.3 1.9 60.9-3.2 94.5zm126.6 980.7c-5.3 11.5-15 23.6-16.1 32.1-0.9 7.3 2.1 21.6 3.2 32 5 45.2 11.1 97.1 1.6 137.8 32.1 50.9 22.3 125.1 33.7 190.7 3.6 20.7 10 41.6 14.4 60.9 19.5 85.8 18.7 180.2 25.6 275.6 8.4-29.5 29.8-54.5 40.1-86.5 6-18.5 8.6-42.6 11.2-65.7 2.7-23.3 6.6-49.1 6.4-72.1-0.2-34.8-13.7-64.8-25.6-97.8-10.9-30.1-20.2-63.2-28.9-94.5-15.5-56.5-15.7-110.5-3.2-161.9 6.4-26 18.8-65.1 12.9-96.1-4.8-24.7-18.1-49.7-24.1-76.9-5.8-26.6-9.8-64-14.4-89.8-9.8 36.6-21.5 78.9-36.8 112.2zm-599.4-16c-6 28.2-21.3 53.6-24 80.1-4.2 40.8 11.4 64.8 17.6 94.6 13.5 64.2 5 126.6-12.8 182.6-8.1 25.5-14.6 53.6-24 80.2-10.2 28.6-20.6 54.3-20.9 84.9-0.2 20.9 3.7 42.7 6.4 64.1 2.8 21.5 4.6 43.5 9.6 62.5 9.6 35.7 30.1 65.9 44.9 97.7 3.5-95.5 3.2-187.3 19.2-264.4 5.6-26.5 14.2-53 17.7-76.9 7.5-52 3.3-104.2 16-147.4 4.1-13.9 13.4-28.3 14.4-41.7 1.1-13.4-4.2-28-4.8-41.6-1.8-42.5 4.6-84.8 9.6-126.6-26.5-39.7-39.1-93.3-56.1-142.7-3.2 33-6.3 64.5-12.8 94.6zm325.3 693.9c-1.9 154.8-3.1 305.5-22.4 442.2-2.8 19.6-12 39-11.2 56.1 0.5 12.8 8.8 26.5 11.2 40.1 5.9 32.9 5.4 71.4 1.6 104.1-2.2 19.1-8.9 35.7-8 54.5 1.2 25.7 11.9 48.2 19.2 72.1 7.8 25.4 12.4 50.2 16 75.4-1.5-52.6 35.6-99.6 33.7-155.5-0.7-20.4-8.4-40.6-9.6-60.9-1.7-26.5-2.9-55.8 0-81.7 1.8-16.5 12.7-33.5 12.8-49.7 0.1-16.4-8.2-35.3-11.2-54.5-21.6-136.8-23-292.2-25.7-443.8-2.1 0.5-3 2.2-6.4 1.6z"/>
    <path id="&lt;Compound Path&gt;" fill-rule="evenodd" class="s1" d="m987.3 944.5c-7.2-3.1-7.9-14.6-9.6-22.4-2.1-9.6-3.5-19.6-4.8-28.8-42.1 23.6-93.2 53.3-132.1 80.1 25.4 2.2 33.7 13.3-4 16-73.5 3.5-142.1 13.9-179.4 51.3-27.2 27.1-62.2 86.8-65.8 133-3.2 42.4 3.5 93.6 11.3 126.6 3 12.8 7.8 26.1 8 38.5 0.4 22-9.9 46.4-14.4 70.5-9.4 49.5-10.9 103.1-6.5 158.6 2.3 27.6 10 55.1 6.5 80.1-3.3 23.1-18.1 44.3-25.7 67.3-19 57.5-12.1 122.3 0 182.7 16.7 82.9 31.3 163.7 38.5 251.6 1.5 18.4 3.9 38.8 3.2 56.1-1 23.4-8.9 49.5-12.8 73.7-2 12-4.7 24.5-6.4 36.9-2 13.4-4.9 28.6-3.3 40 3.1 21.5 25.6 30.5 33.7 51.3 15.1 2.9 20.2 25.6 32 28.8 15.1 4.2 61.1-12.3 67.3-19.2 7.3-8 6.1-23 11.3-32 8.2-14.4 22.8-15.7 25.6-27.3 2.9-11.9-2.8-39.9-9.6-56.1-12.7-30.1-32.9-54.5-41.7-86.5-4.3-15.8-5.6-35.6-8-56.1-2.3-19.2-6.8-39-8-57.7-2.7-42.8 4.8-72.1 16-102.5 7.6-20.7 14.7-40.7 20.9-60.9 12.3-40.3 27.3-84.8 27.2-134.6-0.1-21.3-2.4-43.9-6.4-64.1-3.7-18.8-12.1-36-16-54.5-11-52.5 11.8-86.5 20.8-126.6 13.2-59.1 16.8-128.8 16-198.7-0.1-8.5-3.6-20.9 1.4-28.9-24.8-44.6-47.2-127.9-40.1-141.1 9.4-34 21.6-48.7 37.9-63.7q-9.3 23.1-18.6 46.3-7.7 23.8-2.6 47.6c12.6 69.7 41.5 114.6 90.1 129.4 36.7 6 74.8 1.5 113.2-4.5-32.9 16.5-77 23.1-140.9 12.2-14.2-3.8-19.1-6.7-25.1-11.6-0.2 5.4-0.9 11.1-0.9 15.9 0 14.8-1.2 32 0 43.3 2.3 20.3 10.5 42.5 16.1 62.4 14.8 52.9 33.2 101.2 54.5 144.3 4.2 8.5 11.6 17.2 9.6 27.2-6.8 7.2-10.8-15.7-14.5-6.4-10.3 66.8-5.3 139.1 11.3 192.3 2.8 9.2 10.7 19.4 6.4 28.8-10.6-2-12-13.9-16.1-22.4-4-8.6-8.7-17.8-12.8-25.6-9.5 25.2-12.1 51.4-14.4 78.5-2.4 29.2-1.7 60.7-6.4 88.1-2.7 15.4-7.9 31.4-11.2 46.5-10.6 48.1-19.2 99.2-20.9 157-2.1 75.7-10.4 153.1-1.6 227.6 12.1 101.5 37 199.9 65.7 286.8 9.8 29.5 28.9 56.1 33.7 85 3.1 18.7-1.2 35 0 52.8 1.3 18.8 4.8 37.7 8 54.5 3.4 17.4 10.9 33.4 9.6 49.7-7.5 8.7-14.2-9.9-16-1.6-37.6 123.3-45.8 263-9.6 394.2 28.7 104 61.5 200.6 80.1 314.1 2.9 17.3 7 35.6 6.4 51.3-0.7 22.4-8.5 36.1-17.6 51.2-14.3 24-31.5 44.9-49.7 60.9-2.7 2.4-12.1 9.7-6.4 9.7 9.7-0.9 21.2 1.2 32.1 1.6 10.5 0.4 23.2-2.9 30.4 3.2-11.9 6-28.4 4.9-44.9 6.4-37.2 3.3-77.3 1.1-86.5 28.8 14.1 5.8 29.7 3.2 44.9 3.2 15.6 0 32.2-0.2 48 0 31 0.5 62.6 4.3 91.4 0 7.5-1.1 13.7-5.4 20.8-6.4 18.6-2.5 35.6 3.1 52.9-1.6 3.2-32.7-18-56.2-17.6-86.5 0.1-12.3 7.1-24.7 6.4-38.5-0.8-14.9-8.3-28.4-11.2-43.2-3.2-16.2-3.3-33.8-4.8-49.7-10-106.4-7.7-208.7 11.2-310.9 6-32.4 15.4-61 20.8-89.7 12.7-67.1 7-140-11.2-197.1-9-28.1-21.2-59.6-20.8-89.8 0.2-20.1 8.3-39.1 9.6-57.7 1.7-25.4 2.4-52.6 0-78.5-1.6-16.2-11.5-32.6-12.9-49.7-2.1-26.3 8.2-43.8 11.3-67.3 18.6-140.3 20-293.6 22.4-448.7 10.1-2.8 30.8-3.3 36.9 3.2-1.3 153.1 5.4 310.2 24 442.3 2.7 19 9.7 37.8 11.2 56.1 2.1 25.2-7.9 35-11.2 52.9-6.6 36.3-3.2 83.7 3.2 115.4 2.4 12 6.4 23.3 6.4 35.2 0 30.2-12 59.5-20.8 88.2-19 61.1-19.5 129.5-8 193.9 5 28.4 14.5 57.2 20.8 89.7 13.3 68.6 16.9 135.2 17.6 201.9 0.6 53.8-0.7 108.7-8 155.4-2.3 15-9.8 29.3-11.2 44.9-1.4 15.8 6.4 28.2 6.4 43.3 0 12.9-6.3 28.4-9.6 41.6-3.5 13.9-8.5 27.4-8 43.3 16.6 7.4 34.9-1.6 56.1 1.6 6.4 1 12.4 5.4 19.2 6.4 27.9 4.1 62 0 92.9 0 23.8 0 48.3-0.5 67.3-1.6 6.4-0.3 16.1 3 20.9-3.2 3.8-9.9-8-14.4-14.4-17.6-22.4-11.2-69.3-9.5-96.2-12.8-6.4-0.8-16.1 2.1-19.2-4.8 18-4.5 41.9-3 64.1-3.2-12-14.4-28.6-28.2-41.7-46.5-17.8-25-36.5-50.3-33.6-91.4 4.3-61.7 21.6-123.6 36.8-184.2 14.5-57.7 32.6-115.2 48.1-174.7 32.5-125.2 23.8-258.9-14.4-387.8-4.9-5-1.6 5.2-6.4 4.8-3.6 3.6-8.1-0.1-11.3-1.6 4.7-30.5 15.1-60.3 17.7-96.1 1.3-18.3-2.3-37.8 0-57.7 3.1-28.2 22.2-57.2 32-86.6 29.5-87.9 53.5-188.2 64.1-291.6 7.8-76.3-0.5-152.4-3.2-227.6-2-57.5-10.4-109.5-20.8-157-3.6-16.4-10.3-31.8-12.8-48.1-8.1-52.5-2-110.9-20.9-160.2-5.8 1.1-4.3 8.2-6.4 12.8-1.9 4.2-5.7 8.2-8 12.8-3.9 7.9-5.6 23.2-16 20.8 0.6-15.2 8.4-30.9 12.8-48 13.4-52.1 13-117.5 3.2-174.7-4.2-3.6-6.1 15.6-14.4 8 4.7-18.3 14.2-35.9 22.4-54.5 16-36.2 28.8-72.9 40.1-113.7 5.7-20.6 13.9-41.7 16-62.5 1.1-11.2 0-29.2 0-44.9 0-5.5-0.9-12.3-0.8-18.6-7.9 6.6-11.8 9.8-28.4 14.3-63.9 10.9-108 4.3-141-12.2 38.4 6 76.6 10.5 113.3 4.5 48.6-14.8 77.5-59.7 90.1-129.4q5.1-23.8-2.6-47.6-9.3-23.2-18.7-46.3c16.3 15 28.6 29.7 38 63.7 6.9 12.8-14 91.6-37.9 137.1 7.9 9.3 4 24 4 34.5 0 75.9 4.1 144.2 19.3 201.9 6.2 23.6 17.2 45.5 20.8 67.3 6.2 37.4-7.7 70.1-14.4 97.8-4 16.3-7 33.6-8 51.2-4.2 71.9 21.5 139.4 40 193.9 14 41.1 28.9 74.1 25.7 126.6-2.6 40.9-9.3 100.3-24.1 136.2-13.9 33.9-50 83.3-41.6 118.6 3.6 15.2 20.4 16.3 27.2 28.9 5 9.1 3.7 24.4 11.2 32 15.2 15.4 46.3 13.1 67.3 19.2 6-5 10.1-11.4 16-17.6 5.7-5.9 12.6-9.8 17.7-16 2.3-2.8 2.6-8.2 4.8-11.2 7.3-10.1 20.8-18 24-28.9 6.5-21.9-3.6-54.9-8-81.7-4.1-24.9-11.1-49.8-12.8-72.1-2.7-35.1 2.5-75.8 6.4-113.8 3.6-35.4 8.8-71.6 14.4-105.7 11.7-71.7 34.2-139.5 28.9-213.2-1.8-24.7-8.9-48.5-17.7-72.1-8.3-22.3-21.2-46.2-22.4-67.3-1.3-23.3 6.5-49.4 8-75.3 3.2-54.7 1.7-108.4-8-155.4-4.9-23.6-16.3-48.2-16-69 0.1-11.3 5.1-23.3 8-35.2 8.3-34.8 13.7-79.9 11.2-120.2-1.9-31-13.3-58.7-27.2-83.3-14-24.7-27.6-47-46.5-64.1-41.9-37.9-107.9-38-176.3-46.5-33.2-2.6-28.7-14.1-6.4-14.4-45.3-28.5-84.9-62.5-133-88.1-1.8 9.4-5.5 20.4-8 32-2.1 9.8 0 26.3-11.2 28.8 3.8-42.6 7.7-85.2 11.2-128.2-25.1 20.2-46.1 56.9-78.5 70.6-21.3 8.9-42.2 10.6-67.5 0-33.3-14-50.6-46.4-76.9-70.6-1 0.1-1.9 0.3-1.6 1.6 2.6 41.8 9.8 87.5 9.6 126.6zm83 769.5c12.6-30.4 39.8-27.5 50.2 0.3-30.8-27.5-47.2 11.8-50.2-0.3zm-45.1-710.2c8.3 1.7 14.5 4.1 23 4.1 13.2 0 25.1 6 28.7 18.5 1.1 3.8 14.8 36.2-2.4 16.8-6.7-7.4-5.9-21.3-19.9-23.7-7.6-1.3-36.5-16.4-29.4-15.7zm138.2 0c-8.2 1.7-14.5 4.1-23 4.1-13.1 0-25.1 6-28.7 18.5-1.1 3.8-14.8 36.2 2.5 16.8 6.6-7.4 5.8-21.3 19.9-23.7 7.6-1.3 36.4-16.4 29.3-15.7zm-190.5 1713.9c17.6 28.9 57.9 43.9 60.4 30 1.6 2.8 8.8 15.9-12.5 17.2-9.7 0-28-11-34.8-17.8-9.4-9.4-11.6-19.6-13.1-29.4zm-19.9 16c-12.8 13.2-20.4 21-41.6 23.1 4.3 4.5 9.2 9.9 27.2 6.2 13.4-8.1 14.7-18.5 14.4-29.3zm-31.1 79.8c3.5 35.5 7.6 79.9 26.8 96.7 6.9 7.2 20.7 10.2 37.6 14.5-15.6 6.5-37.4 2.9-54-7.7-14.9-9.6-23.4-93.8-10.4-103.5zm112.7-19.7c-0.2 18.8 0.2 87-7.9 103.8-3.9 8.1-15.1 15.6-24.1 18.4 15.6 6.4 13.6 7.1 30.2-3.6 14.8-9.5 14.8-108.9 1.8-118.6zm197.9-76.1c-17.6 28.9-57.9 43.9-60.4 30-1.6 2.8-8.8 15.9 12.5 17.2 9.6 0 27.9-11 34.8-17.8 9.4-9.4 11.6-19.6 13.1-29.4zm19.9 16c12.8 13.2 20.4 21 41.6 23.1-4.3 4.5-9.2 9.9-27.2 6.2-13.4-8.1-14.8-18.5-14.4-29.3zm31.1 79.8c-3.5 35.5-7.6 79.9-26.8 96.7-6.9 7.2-20.7 10.2-37.6 14.5 15.6 6.5 37.4 2.9 54-7.7 14.8-9.6 23.3-93.8 10.4-103.5zm-112.7-19.7c0.2 18.8-0.2 87 7.9 103.8 3.9 8.1 15.1 15.6 24.1 18.4-15.6 6.4-13.6 7.1-30.2-3.6-14.8-9.5-14.8-108.9-1.8-118.6zm60.2-2190.6c1.8-18.4 4.1-35.1 4.8-52.9 2.1-46.7-13.4-76-35.2-99.3-23-24.6-66.1-48.7-105.8-51.3-45-3-86.1 19.8-115.5 51.3-17 18.2-32.9 44-35.3 75.3-2.2 29 2.9 55 4.9 78.5 0.5 6.9 6.5 18.9-3.3 24.1-10.6-0.1-1.8-19.6-14.4-17.7-12.3 0.6-14.2 20.1-12.8 36.9 2.2 27.3 17.3 61.9 32 70.5-0.6-7.6 0.2-13.8 8.1-12.8 11.1 24.2 8.5 51.7 17.6 75.3 8.5 21.9 25.8 39.7 41.7 56.1 19.5 20.2 40.4 39.9 72.1 41.6 38.1 2.2 52.6-21.3 72.2-41.6 26.7-27.6 42-50.1 49.7-94.6 2.4-13.7 2.6-30.3 11.2-36.8 6.5-0.1 6.9 5.9 6.4 12.8 15.4-8.8 39.3-60.3 32.1-92.9-1.6-7.3-8-16.6-14.4-14.5-10.3 3.5-1.4 15-14.5 17.7-6.7-7.4-2.3-17.9-1.6-25.7z"/>
    802.3q12.6-29.1 25.3-58.3 14.5-25.7 48.5-47.5c-26.3 32.3-54 64.3-59.2 101.9q-13.1 38.9-14.6 3.9zm-5.2 132.1c6.6 37.7 10.9 74.9 11.6 111.2 0.2 26.7 8.4 23.3 7.2-17.6 1.9-29.2-10.4-102.2-18.8-93.6z&quot;/&gt;
    <path id="muscle001" fill-rule="evenodd" class="s2" d="m890.8 1017.9c-82.2 36.3-158.3 110.8-210 239.5-9.9 5.1-24.7-2.5-14.7-67.2 14.5-53.9 8-85 63.5-162.5 45.6-48.4 172.3-28.3 161.2-9.8z"/>
    <path id="muscle002;" fill-rule="evenodd" class="s2" d="m728.9 1019c-60.9 60-89.9 181.3-73.1 263.4-12.4 45.6-26.8 74.1-36.5 46.9-37.5-147.4-7.1-237.1 62.8-294.5 8.7-6.4 42.2-22.1 46.8-15.8z"/>
    <path id="muscle003" fill-rule="evenodd" class="s2" d="m731.7 1260c-7.4-37.3-17-60.1-42 18.3-47.2 108.9-39.9 215.6-41.9 320.9 4.8 77.1 38.4 67 66.8 27.5 33.1-57.2 64.9-234.4 17.1-366.7z"/>
    <path id="muscle004" fill-rule="evenodd" class="s2" d="m637.7 1348.5q30.9-40 13 14.6c-12.3 76.5-20.1 152.2-10.5 246.2 0 30.2-24.2 39.7-31.8 15.4-16.3-113.9-19.7-216.8 29.3-276.2z"/>
    <path id="muscle005" fill-rule="evenodd" class="s2" d="m598.2 1691.8c21.5-64.8 91.8-35.9 86.6 51.6 15.8 133.1-12.4 251.5 0 391.1-4.2 42.4-13 45.7-20.9 9.8-17.3-174.8-97.6-356.1-65.7-452.5z"/>
    <path id="muscle006" fill-rule="evenodd" class="s2" d="m571.2 1807.8c8.8-61.4 12.9-5.7 18.8 27.8 18.2 113.2 59 222.4 66.8 333.6-0.6 24.6-24.2 30.3-33.4 21.2 0.7-111.3-58.3-341.9-52.2-382.6z"/>
    <path id="muscle007" fill-rule="evenodd" class="s2" d="m719.6 1676.6q-27.7-24.8-25.3 25.3c7.8 87.4 15.5 174.7-1.9 259.5q-1.9 54.4 15 15c36.6-97.9 55.6-196.9 12.2-299.8z"/>
    <path id="muscle008" fill-rule="evenodd" class="s2" d="m1299.6 1017.9c82.2 36.3 158.3 110.8 210 239.5 9.9 5.1 24.7-2.5 14.7-67.2-14.5-53.9-8-85-63.5-162.5-45.6-48.4-172.3-28.3-161.2-9.8z"/>
    <path id="muscle009" fill-rule="evenodd" class="s2" d="m1461.5 1019c61 60 89.9 181.3 73.1 263.4 12.5 45.6 26.8 74.1 36.5 46.9 37.5-147.4 7.1-237.1-62.8-294.5-8.7-6.4-42.2-22.1-46.8-15.8z"/>
    <path id="muscle010" fill-rule="evenodd" class="s2" d="m1464.4 1260c7.4-37.3 17-60.1 41.9 18.3 47.3 108.9 40 215.6 42 320.9-4.8 77.1-38.4 67-66.8 27.5-33.1-57.2-64.9-234.4-17.1-366.7z"/>
    <path id="muscle011" fill-rule="evenodd" class="s2" d="m1558.4 1348.5q-31-40-13 14.6c12.3 76.5 20.1 152.2 10.5 246.2 0 30.2 24.2 39.7 31.8 15.4 16.3-113.9 19.7-216.8-29.3-276.2z"/>
    <path id="muscle012" fill-rule="evenodd" class="s2" d="m1597.9 1691.8c-21.5-64.8-91.8-35.9-86.6 51.6-15.8 133.1 12.3 251.5 0 391.1 4.1 42.4 13 45.7 20.9 9.8 17.3-174.8 97.6-356.1 65.7-452.5z"/>
    <path id="muscle013" fill-rule="evenodd" class="s2" d="m1624.9 1807.8c-8.8-61.4-12.9-5.7-18.8 27.8-18.2 113.2-59 222.4-66.8 333.6 0.5 24.6 24.2 30.3 33.4 21.2-0.7-111.3 58.3-341.9 52.2-382.6z"/>
    <path id="muscle014" fill-rule="evenodd" class="s2" d="m1476.5 1676.6q27.7-24.8 25.3 25.3c-7.8 87.4-15.5 174.7 1.9 259.5q1.9 54.4-15 15c-36.6-97.9-55.6-196.9-12.2-299.8z"/>
    <path id="muscle015" fill-rule="evenodd" class="s2" d="m970.5 949.1c13 39 20.4 33.2-24.6 30.1-92.9-6.5-89.7-4.3-12.4-46.4 36.7-20 25.2-18.9 37 16.3z"/>
    <path id="muscle016" fill-rule="evenodd" class="s2" d="m993 857.5c1.8 36.6 19.7 92 35.9 116.8 23.8 36.3 52.5 31.6 48.7 14.8-28.6-40.4-31.7-87-41.1-101.1-22.8-14.5-40.5-50.5-43.5-30.5z"/>
    <path id="muscle017" fill-rule="evenodd" class="s2" d="m925.8 1019.7c33-10.6 161.4 41.5 140.4 48.1-88.3 28.4-174 47.6-272.3 112.8-34.1 18-36.8 9.8-24.7-23.5 24.5-76.8 85-110.8 156.6-137.4z"/>
	<path id="muscle018" fill-rule="evenodd" class="s2" d="m820.9 1173.1c-18.5 9.8-34.7 19-44.1 25.3-16.1 10.9-14.7 16.6 4.4 12.3 19.7-4.3 40.9-4.3 60.9-3.1 106.7 6.3 195.2 44.2 233.9 39.3 13.7 1.7 10.6-154.9-11.6-155.2-97.4 12.8-168.6 37.6-243.5 81.4z"/>
	<path id="muscle019" fill-rule="evenodd" class="s2" d="m799.5 1216.1c-36.7 2.3-36.9 7.5-34.1 34.8 11.6 41.9 36.4 79.4 74.4 87.1 82 16.5 194-22.7 208.4-25.3 19.5-6.3 43.4-26.6 12.6-44.3-75.8-36.3-217.9-57.8-261.3-52.3z"/>
	<path id="muscle020" fill-rule="evenodd" class="s2" d="m952.7 1369.6c-14.3 11.5-25.3 64.3-6.6 64.3 16.1-1.1 26.3-12.1 55.1-15.3 23.8-2.7 49.6-0.5 64.5-2.8 25.6-12.7 23.1-82.3-0.8-84.2-41.8 2.1-84.1 6.2-112.2 38z"/>
	<path id="muscle021" fill-rule="evenodd" class="s2" d="m945.7 1449.7c26.1-17.6 91-26.2 124.1-16.8 15.6 7.4 15.2 76.5 5.4 101.9-10.9 19-75.3 7.4-121.5 19.8-32.4 12.5-35.4-85-8-104.9z"/>
	<path id="muscle022" fill-rule="evenodd" class="s2" d="m947.4 1575.6c22.2-13.3 81-17.4 109.6-14.3 33.8 2.6 26 101.9 12.1 110.1-15.7 13.4-12.1 24.6-27.9 40.8-12.3 8.3-44.7 10.9-63.5 19.3-40.3 11.4-52.2-146.6-30.3-155.9z"/>
	<path id="muscle023" fill-rule="evenodd" class="s2" d="m971.7 1759.9c28.8-16.6 57.7-28 86.6-24.8 18.8 5 21.8 15.4 21.5 25.6 2.5 81.5 2.2 160.2 2.4 239.3-1.6 28.9-32.1 52.8-52.8 10.8-43.4-71.6-88.5-237.2-57.7-250.9z"/>
	<path id="muscle024" fill-rule="evenodd" class="s2" d="m1209.6 949.1c-13.1 39-20.4 33.2 24.5 30.1 92.9-6.5 89.7-4.3 12.4-46.4-36.6-20-25.1-18.9-36.9 16.3z"/>
	<path id="muscle025" fill-rule="evenodd" class="s2" d="m1190.8 857.5c-1.8 36.6-19.7 92-35.9 116.8-23.8 36.3-52.5 31.6-48.6 14.8 28.5-40.4 31.7-87 41.1-101.1 22.7-14.5 40.4-50.5 43.4-30.5z"/>
	<path id="muscle026" fill-rule="evenodd" class="s2" d="m1261.9 1019.7c-33.1-10.6-161.5 41.5-140.5 48.1 88.3 28.4 174.1 47.6 272.4 112.8 34 18 36.7 9.8 24.6-23.5-24.5-76.8-85-110.8-156.5-137.4z"/>
	<path id="muscle027" fill-rule="evenodd" class="s2" d="m1366.8 1173.1c18.4 9.8 34.7 19 44 25.3 16.1 10.9 14.8 16.6-4.4 12.3-19.7-4.3-40.8-4.3-60.9-3.1-106.7 6.3-195.2 44.2-233.9 39.3-13.7 1.7-10.5-154.9 11.6-155.2 97.4 12.8 168.7 37.6 243.6 81.4z"/>
	<path id="muscle028" fill-rule="evenodd" class="s2" d="m1388.1 1216.1c36.7 2.3 36.9 7.5 34.2 34.8-11.6 41.9-36.5 79.4-74.5 87.1-81.9 16.5-193.9-22.7-208.4-25.3-19.4-6.3-43.4-26.6-12.6-44.3 75.8-36.3 217.9-57.8 261.3-52.3z"/>
	<path id="muscle029" fill-rule="evenodd" class="s2" d="m1234.9 1369.6c14.3 11.5 25.3 64.3 6.6 64.3-16-1.1-26.3-12.1-55-15.3-23.9-2.7-49.7-0.5-64.6-2.8-25.6-12.7-23.1-82.3 0.8-84.2 41.8 2.1 84.1 6.2 112.2 38z"/>
	<path id="muscle030" fill-rule="evenodd" class="s2" d="m1241.9 1449.7c-26.1-17.6-91-26.2-124.1-16.8-15.5 7.4-15.2 76.5-5.4 101.9 10.9 19 75.3 7.4 121.5 19.8 32.5 12.5 35.4-85 8-104.9z"/>
	<path id="muscle031" fill-rule="evenodd" class="s2" d="m1240.2 1575.6c-22.1-13.3-81-17.4-109.5-14.3-33.9 2.6-26.1 101.9-12.2 110.1 15.7 13.4 12.2 24.6 27.9 40.8 12.4 8.3 44.7 10.9 63.5 19.3 40.3 11.4 52.2-146.6 30.3-155.9z"/>
	<path id="muscle032" fill-rule="evenodd" class="s2" d="m1216 1759.9c-28.9-16.6-57.8-28-86.7-24.8-18.8 5-21.8 15.4-21.4 25.6-2.6 81.5-2.3 160.2-2.5 239.3 1.6 28.9 32.2 52.8 52.8 10.8 43.5-71.6 88.6-237.2 57.8-250.9z"/>
	<path id="muscle033" fill-rule="evenodd" class="s2" d="m805.3 1363.1c-15.8-3.1-14.5 15.6-3.8 21.8 30.7 31.2 79.6 74.9 111.9 82.7 9.3 2.8 1-29 4.2-53.9 3.4-26.5 14.7-49.9 3.9-47.2-32.5 9.4-78.5 6.4-116.2-3.4z"/>
	<path id="muscle034" fill-rule="evenodd" class="s2" d="m802.9 1401.7c32.9 32 71.4 67.5 107.2 80.4 11.8 1.5 3.4 55.8 7.3 98.6 3.8 42.8 17.1 105 6 96.9-37-19.4-83.3-95.8-118.4-230-13-42.2-11.3-48.3-2.1-45.9z"/>
	<path id="muscle035" fill-rule="evenodd" class="s2" d="m883 1661.8c-22.6-21-26.1-13.2-27.4 23.6-2.8 75.4 18 122.5 62.3 166.8 29.5 36.8 42.7 34.9 32-11.3-11-55.8 0-100.9-66.9-179.1z"/>
	<path id="muscle036" fill-rule="evenodd" class="s2" d="m1383.4 1363.1c15.8-3.1 14.5 15.6 3.8 21.8-30.7 31.2-79.7 74.9-111.9 82.7-9.3 2.8-1-29-4.2-53.9-3.4-26.5-14.7-49.9-3.9-47.2 32.5 9.4 78.5 6.4 116.2-3.4z"/>
	<path id="muscle037" fill-rule="evenodd" class="s2" d="m1385.8 1401.7c-32.9 32-71.4 67.5-107.2 80.4-11.8 1.5-3.4 55.8-7.3 98.6-3.8 42.8-17.1 105-6.1 96.9 37.1-19.4 83.4-95.8 118.5-230 13-42.2 11.3-48.3 2.1-45.9z"/>
	<path id="muscle038" fill-rule="evenodd" class="s2" d="m1305.7 1661.8c22.6-21 26.1-13.2 27.3 23.6 2.9 75.4-17.9 122.5-62.2 166.8-29.5 36.8-42.7 34.9-32-11.3 11-55.8 0-100.9 66.9-179.1z"/>
	<path id="muscle039" fill-rule="evenodd" class="s2" d="m837.2 1865.3c6.1-65.6 58.1 37.6 41.5 78.1-7.2 23.6-17.3 45.8-21.5 70.8-6.8 34.1-29.3 24.2-26.3-18.1 3.9-40.2-0.8-89.6 6.3-130.8z"/>
	<path id="muscle040" fill-rule="evenodd" class="s2" d="m942.2 1944.6c80.7 137.4 78.2 188.8 24.7 437-7.3 56.9-15.6 94.2-30.2-5.5-14.9-141.4-94.8-248.9-44.8-424.1 9.4-24.4 11.6-76.2 50.3-7.4z"/>
	<path id="muscle041" fill-rule="evenodd" class="s2" d="m820.6 2106.2q15.4-102.2 36.1-6.6c50.3 197.5 92.7 391.8 89.5 567.9-8 52.7-20.4 91.1-64.1 29.4-78.3-166.4-104.4-360.2-61.5-590.7z"/>
	<path id="muscle042" fill-rule="evenodd" class="s2" d="m1021 2207.8q30.1-88.9 38.8 25.4c8 151.4 4.4 308.2-14.7 454.3-5.4 62.8-80.2 24.1-84.2-72.2-6.1-109.7 23.4-254.9 60.1-407.5z"/>
	<path id="muscle043" fill-rule="evenodd" class="s2" d="m893.5 2984.8c19.2-91.1 67.5-37.8 90.3 103.3 23.2 138-30.9 286.8 38.4 573.6 9.8 34.5-3.4 45.4-11.8 48.7-12.3 4.7-29.5-12.5-31.9-26-45.9-265-163.7-449.6-85-699.6z"/>
	<path id="muscle044" fill-rule="evenodd" class="s2" d="m1016.7 2980c-4.8-62.2 22.8-67.7 39 27.6 50 174.4 2.3 237.1-13 347.5-5.4 60.7-22.2 59-19.5-21.1-2.1-118 16.8-221.4-6.5-354z"/>
	<path id="muscle045" fill-rule="evenodd" class="s2" d="m1360.6 1865.3c-6.1-65.6-58.2 37.6-41.5 78.1 7.1 23.6 17.2 45.8 21.4 70.8 6.8 34.1 29.3 24.2 26.4-18.1-3.9-40.2 0.8-89.6-6.3-130.8z"/>
	<path id="muscle046" fill-rule="evenodd" class="s2" d="m1259.4 1944.6c-80.8 137.4-78.3 188.8-24.7 437 7.3 56.9 15.5 94.2 30.1-5.5 15-141.4 94.8-248.9 44.8-424.1-9.4-24.4-11.5-76.2-50.2-7.4z"/>
	<path id="muscle047" fill-rule="evenodd" class="s2" d="m1380.9 2106.2q-15.3-102.2-36-6.6c-50.4 197.5-92.8 391.8-89.6 567.9 8 52.7 20.4 91.1 64.2 29.4 78.2-166.4 104.4-360.2 61.4-590.7z"/>
	<path id="muscle048" fill-rule="evenodd" class="s2" d="m1180.5 2207.8q-30.1-88.9-38.7 25.4c-8.1 151.4-4.5 308.2 14.7 454.3 5.3 62.8 80.1 24.1 84.1-72.2 6.1-109.7-23.3-254.9-60.1-407.5z"/>
	<path id="muscle049" fill-rule="evenodd" class="s2" d="m1308.1 2984.8c-19.3-91.1-67.6-37.8-90.3 103.3-23.3 138 30.8 286.8-38.5 573.6-9.8 34.5 3.5 45.4 11.8 48.7 12.3 4.7 29.5-12.5 31.9-26 45.9-265 163.7-449.6 85.1-699.6z"/>
	<path id="muscle050" fill-rule="evenodd" class="s2" d="m1190.5 2980c4.9-62.2-22.7-67.7-39 27.6-49.9 174.4-2.2 237.1 13 347.5 5.4 60.7 22.2 59 19.5-21.1 2.2-118-16.8-221.4 6.5-354z"/>
	<path id="muscle051" fill-rule="evenodd" class="s2" d="m2794.6 1015.4c12.5-6.3 20.6-7.2 31.5-2.7 19.5 7.9 38.4 29.5 45.3 47 5.5 13.9 1.8 17.7-11.8 24.7-81.7 46.6-130.3 113.3-164 189.2-7.6 21.3-29.3 42.7-33-20-9.6-41.1-8.7-91.8 16.9-139.2 23.3-43.1 68.6-84.1 115.1-99z"/>
	<path id="muscle052" fill-rule="evenodd" class="s2" d="m2773 1184.8c1.4-15.9 55.5-75.5 77.6-65.3 22.8 5 13 68.7 31.5 109.6 8 33-50.3 47.4-70.6 33.7-23.2-14.7-41.8-57.4-38.5-78z"/>
	<path id="muscle053" fill-rule="evenodd" class="s2" d="m2683.4 1316.1c35.5-43.8 36.8-37.1 50-10.2 13.2 18.8 46.1 102 29.2 180.6q-13.2 59.3-26.4 118.7c-10.5 36-21 59.7-31.5-2-9.8-28.1-36.1-47-30.7-84.2 1.7-27.4-21.9-31.7-32.1-1.1q-5.1 34-10.2 68c-14.2 51.4-21.7 49.8-20.3-4-6.6-137.3 23.5-216.3 72-265.8z"/>
	<path id="muscle054" fill-rule="evenodd" class="s2" d="m2791.5 1332.4c-3.1-23.7-30.2-66 24.1-46.6 23.4 6.9 59.6-2 82-20.8q15.7-21.9 31.4 1.9c50.8 44.6 87.6 113 120.7 188.1 17.9 23.4 15.9 43.4 6.6 61.7-20.8 51.3-42.4 100.6-70.3 135.9-20.3 22.1-57.8 21.9-78.1-9.2-44.8-64.4-103.4-164-116.4-311z"/>
	<path id="muscle055" fill-rule="evenodd" class="s2" d="m2855.5 1007.2c-0.5-14.6 142.8-42.6 221.8-47 30.7-3.2 38.1 1.9 39.5 24 4.7 147.3 7.1 293.5 0 435.2-1.8 43.9-11.8 111.5-37.7 42.6-32.3-79.6-111.6-197.5-178.9-250.2-10.3-8.2-21.2-29-17.4-45.1 5.5-26.4 45.7-50.3 48.9-70.2 2.6-17.9-8.4-19.1-24.8-30.8-19-17.1-53.2-38.3-51.4-58.5z"/>
	<path id="muscle056" fill-rule="evenodd" class="s2" d="m2919.9 960.1c52.8-35.4 105.7-40.2 112.2-59.9 18-73.7 7.1-122.4 16.4-131 7.6-14.1 46.1-11 53.1-3 16.7 26.2 2.8 92.8 5.3 138.5 0 20 3.7 38.5-25.5 43.4-35.4 2.5-80.5 5.8-141.3 20.3-39.9 12.9-44.7 7.2-20.2-8.3z"/>
	<path id="muscle057" fill-rule="evenodd" class="s2" d="m2968.4 1687.5c-20.6 4.5-26 58.9 8.7 68.6 33.4 14.5 65.6 33.2 93.4 66.8 22 27.2 29.8 18 31.5-24 8.7-63.1 2.9-176 2.8-275.8-3.3-19.5-17.6-14.3-24.3-3.9-32.1 51.6-54.6 157.6-112.1 168.3z"/>
	<path id="muscle058" fill-rule="evenodd" class="s2" d="m2891.9 1696.2c9.1-13 46.3-18.9 45 0-2.4 16.5 1.1 35 4.5 51.6 1.1 15-38.2 50.2-46.9 26.1-6.5-15.4-11.1-43.2-2.6-77.7z"/>
	<path id="muscle059" fill-rule="evenodd" class="s2" d="m3040.6 1875.9c-57.9 22.9-80.4 87.2-119.1 129.3-18.5 19.9-65.3 81.2-66.6-5 0.5-100.9 13.8-201.3 110-213.2 28.5-3.2 134.5 60.5 75.7 88.9z"/>
	<path id="muscle060" fill-rule="evenodd" class="s2" d="m3060.1 1890.2c50.6-25 56.8 15.7 55 41.6q-1.3 122.1-2.6 244.3c-4.5 29.9-14.3 66.6-87.3 72.4-107.3 12.5-191.9-154.8-123.4-194.6 60.8-23.7 101.5-141.3 158.3-163.7z"/>
	<path id="muscle061" fill-rule="evenodd" class="s2" d="m2673 1783.2c4.6-42.8 16.7-33.3 26.4-53.8 16.4-34.8 46.5-57.2 55.9-11.7 33.9 126.2-53 248.6-11.5 390.3 6.7 26.2-2.4 97.6-22.1 12.3-16.2-112.3-47.5-216.7-48.7-337.1z"/>
	<path id="muscle062" fill-rule="evenodd" class="s2" d="m2593.5 1751.4c15.7-47.8 41.5-31.6 63.6 69 6.1 28.4 6.3 58.3 13.9 110.7 9.6 65.1 27.4 155.7 42.7 213.1 8.4 42.4-8.7 57.7-38.9-15-41.4-137.5-109.8-262.4-81.3-377.8z"/>
	<path id="muscle063" fill-rule="evenodd" class="s2" d="m3466.5 1015.4c-12.5-6.3-20.6-7.2-31.5-2.7-19.5 7.9-38.3 29.5-45.3 47-5.5 13.9-1.8 17.7 11.8 24.7 81.7 46.6 130.3 113.3 164 189.2 7.7 21.3 29.3 42.7 33-20 9.6-41.1 8.7-91.8-16.9-139.2-23.2-43.1-68.6-84.1-115.1-99z"/>
	<path id="muscle064" fill-rule="evenodd" class="s2" d="m3488.1 1184.8c-1.4-15.9-55.5-75.5-77.6-65.3-22.8 5-13 68.7-31.5 109.6-7.9 33 50.4 47.4 70.6 33.7 23.3-14.7 41.9-57.4 38.5-78z"/>
	<path id="muscle065" fill-rule="evenodd" class="s2" d="m3577.7 1316.1c-35.5-43.8-36.8-37.1-50-10.2-13.1 18.8-46.1 102-29.2 180.6q13.2 59.3 26.4 118.7c10.5 36 21 59.7 31.5-2 9.8-28.1 36.1-47 30.7-84.2-1.6-27.4 21.9-31.7 32.2-1.1q5 34 10.1 68c14.2 51.4 21.7 49.8 20.3-4 6.6-137.3-23.5-216.3-72-265.8z"/>
	<path id="muscle066" fill-rule="evenodd" class="s2" d="m3469.6 1332.4c3.1-23.7 30.2-66-24.1-46.6-23.4 6.9-59.5-2-82-20.8q-15.7-21.9-31.4 1.9c-50.7 44.6-87.6 113-120.6 188.1-17.9 23.4-16 43.4-6.7 61.7 20.8 51.3 42.4 100.6 70.3 135.9 20.3 22.1 57.8 21.9 78.1-9.2 44.8-64.4 103.4-164 116.4-311z"/>
	<path id="muscle067" fill-rule="evenodd" class="s2" d="m3405.6 1007.2c0.5-14.6-140-42.6-217.5-47-30.2-3.2-37.4 1.9-38.8 24-4.6 147.3-6.9 293.5 0 435.2 1.8 43.9 11.6 111.5 37 42.6 31.7-79.6 109.5-197.5 175.5-250.2 10.1-8.2 20.8-29 17-45.1-5.4-26.4-44.8-50.3-47.9-70.2-2.6-17.9 8.2-19.1 24.3-30.8 18.7-17.1 52.2-38.3 50.4-58.5z"/>
	<path id="muscle068" fill-rule="evenodd" class="s2" d="m3341.3 960.1c-52.9-35.4-105.8-40.2-112.2-59.9-18.1-73.7-7.2-122.4-16.5-131-7.6-14.1-46.1-11-53.1-3-16.7 26.2-2.8 92.8-5.3 138.5 0 20-3.7 38.5 25.5 43.4 35.4 2.5 80.5 5.8 141.4 20.3 39.9 12.9 44.6 7.2 20.2-8.3z"/>
	<path id="muscle069" fill-rule="evenodd" class="s2" d="m3292.8 1687.5c20.5 4.5 25.9 58.9-8.6 68.6-33.1 14.5-65 33.2-92.7 66.8-21.8 27.2-29.6 18-31.3-24-8.6-63.1-2.8-176-2.7-275.8 3.2-19.5 17.4-14.3 24.1-3.9 31.8 51.6 54.2 157.6 111.2 168.3z"/>
	<path id="muscle070" fill-rule="evenodd" class="s2" d="m3369.2 1696.2c-9.1-13-46.3-18.9-45 0 2.4 16.5-1 35-4.5 51.6-1.1 15 38.2 50.2 46.9 26.1 6.5-15.4 11.1-43.2 2.6-77.7z"/>
	<path id="muscle071" fill-rule="evenodd" class="s2" d="m3220.5 1875.9c57.9 22.9 80.4 87.2 119.1 129.3 18.5 19.9 65.3 81.2 66.7-5-0.6-100.9-13.9-201.3-110.1-213.2-28.5-3.2-134.5 60.5-75.7 88.9z"/>
	<path id="muscle072" fill-rule="evenodd" class="s2" d="m3201 1890.2c-50.6-25-56.8 15.7-55 41.6q1.3 122.1 2.7 244.3c4.4 29.9 14.3 66.6 87.2 72.4 107.3 12.5 191.9-154.8 123.4-194.6-60.8-23.7-101.5-141.3-158.3-163.7z"/>
	<path id="muscle073" fill-rule="evenodd" class="s2" d="m3588.1 1783.2c-4.6-42.8-16.7-33.3-26.4-53.8-16.4-34.8-46.5-57.2-55.9-11.7-33.9 126.2 53 248.6 11.5 390.3-6.7 26.2 2.4 97.6 22.1 12.3 16.3-112.3 47.5-216.7 48.7-337.1z"/>
	<path id="muscle074" fill-rule="evenodd" class="s2" d="m3667.6 1751.4c-15.7-47.8-41.4-31.6-63.6 69-6.1 28.4-6.3 58.3-13.9 110.7-9.6 65.1-27.3 155.7-42.7 213.1-8.4 42.4 8.7 57.7 38.9-15 41.4-137.5 109.8-262.4 81.3-377.8z"/>
	<path id="muscle075" fill-rule="evenodd" class="s2" d="m2867 2260c2-33.7 26.4-2.4 54.1 14 24.5 14.6 54.5 4.3 51.4 45.1 5.5 115.6 21.2 246.5 16.5 346.7-2 66.2-24.7 103.9-37.3 110.3-12.7 6.5-25.7-14.7-38.7-55.9-33.5-135.5-61.6-289.2-46-460.2z"/>
	<path id="muscle076" fill-rule="evenodd" class="s2" d="m2996.1 2297.2c10.4 1.1 15.1 1.3 29.9 2 14.8 0.7 28.2-6.8 29 6.2 25.9 160.8 31.5 310.5 10.5 441-4.7 38.9-16.3 40.9-25.2 36.3-8.8-4.6-18.4-31.5-29.2-97.4-12.6-167.6-22.8-319.9-21.2-370.1 0.2-7.9-0.6-18.9 6.2-18z"/>
	<path id="muscle077" fill-rule="evenodd" class="s2" d="m2944.1 2959.4c27.1-62.8 43.9-49.6 43.1 32.4-6.4 88.7-12.8 184.7-4.8 280.7 5.2 47.9-66.3 70.7-77.9-25.2-5.4-105.3 6.6-201.8 39.6-287.9z"/>
	<path id="muscle078" fill-rule="evenodd" class="s2" d="m3014.3 2982.9c14.5-81.1 34-52.8 55.9 25.1 29 122.9 40.2 238.1 12.1 336.2-28.9 102.1-75.4 5.9-80.1-45.7-6.8-113.9-3.4-219.1 12.1-315.6z"/>
	<path id="muscle079" fill-rule="evenodd" class="s2" d="m3392.9 2260c-2-33.7-26.4-2.4-54.1 14-24.5 14.6-54.5 4.3-51.4 45.1-5.5 115.6-21.2 246.5-16.5 346.7 2 66.2 24.7 103.9 37.3 110.3 12.7 6.5 25.7-14.7 38.7-55.9 33.5-135.5 61.6-289.2 46-460.2z"/>
	<path id="muscle080" fill-rule="evenodd" class="s2" d="m3263.8 2297.2c-10.4 1.1-15.1 1.3-29.9 2-14.8 0.7-28.2-6.8-29 6.2-25.9 160.8-31.5 310.5-10.5 441 4.7 38.9 16.3 40.9 25.2 36.3 8.8-4.6 18.4-31.5 29.2-97.4 12.6-167.6 22.8-319.9 21.2-370.1-0.2-7.9 0.6-18.9-6.2-18z"/>
	<path id="muscle081" fill-rule="evenodd" class="s2" d="m3315.8 2959.4c-27.1-62.8-43.9-49.6-43.1 32.4 6.4 88.7 12.8 184.7 4.8 280.7-5.2 47.9 66.3 70.7 77.9-25.2 5.4-105.3-6.6-201.8-39.6-287.9z"/>
	<path id="muscle082" fill-rule="evenodd" class="s2" d="m3245.6 2982.9c-14.5-81.1-34-52.8-55.9 25.1-29 122.9-40.2 238.1-12.1 336.2 28.9 102.1 75.4 5.9 80.1-45.7 6.8-113.9 3.4-219.1-12.1-315.6z"/>
  </g>
</svg>
